<svg xmlns="http://www.w3.org/2000/svg" version="1.1" viewBox="-5.0 -10.0 110.0 135.0" fill="#ffffff" >
 <path d="m5.2812 57.738h89.719v13.781h-89.719v-13.781z"/>
 <path d="m5.2812 77.141h89.719v14.34h-89.719v-14.34z"/>
 <path d="m85.441 34.109c-7.3086 12.09-24.75 9-28.398-3.9414l-52.043 19.691 0.28125 2.25h89.719v-4.2188c-2.5312-6.1914-5.9102-10.691-9.5586-13.781z"/>
 <path d="m62.371 22.02c-2.25 5.6289 1.9688 14.059 9.5586 14.059 9.8398 0 13.219-14.059 7.3086-16.879-2.5312-1.1289-3.9414 0.28125-6.1914 0.55859-0.28125-3.9414-3.6602-8.1602-6.4688-10.969-0.28125-0.28125-0.55859-0.28125-0.83984-0.28125-1.1289 0-1.6914 1.4102-0.83984 1.9688 2.8086 2.8086 4.2188 5.0586 5.0586 6.4688 0.55859 1.6914 0.83984 2.5312 0.83984 2.8086-0.83984 0-1.6914-0.28125-2.25-0.83984-2.5391-1.6797-5.3516 0.57031-6.1914 3.1016z"/>
</svg>